<svg width="256" height="256" viewBox="0 0 256 256" fill="none" xmlns="http://www.w3.org/2000/svg" role="img" aria-labelledby="title desc">
  <title id="title">Yochiren icon</title>
  <desc id="desc">A clean icon showing a PDF page, crop frame, and data points.</desc>
  <rect width="256" height="256" rx="48" fill="#11212B"/>
  <path d="M64 38H156L200 82V218H64V38Z" fill="#F7FAF8"/>
  <path d="M156 38V84H200" fill="#D9E7E1"/>
  <path d="M82 116H174M82 138H150M82 160H132" stroke="#6B7C85" stroke-width="10" stroke-linecap="round"/>
  <rect x="78" y="96" width="100" height="84" rx="10" stroke="#25B99A" stroke-width="8" stroke-dasharray="16 10"/>
  <circle cx="78" cy="96" r="9" fill="#25B99A"/>
  <circle cx="178" cy="96" r="9" fill="#25B99A"/>
  <circle cx="78" cy="180" r="9" fill="#25B99A"/>
  <circle cx="178" cy="180" r="9" fill="#25B99A"/>
  <path d="M52 206C80 190 104 198 128 210C152 222 179 230 207 204" stroke="#FFB84D" stroke-width="10" stroke-linecap="round"/>
  <circle cx="128" cy="210" r="10" fill="#FFB84D"/>
  <path d="M154 39L199 84" stroke="#FFFFFF" stroke-width="5" stroke-linecap="round" opacity=".75"/>
</svg>
